<svg xmlns="http://www.w3.org/2000/svg" viewBox="0 0 510.93 156.05"><defs><style>.cls-1{fill:#231f20;}</style></defs><title>Asset 1</title><g id="Layer_2" data-name="Layer 2"><g id="Layer_1-2" data-name="Layer 1"><path class="cls-1" d="M197,124.84c.76,0,.13-1-.42-1-.76,0-.13,1,.42,1Z"/><path class="cls-1" d="M271.52,2.47C281.85,15.19,290,33.85,283.48,50c-5.7,14.11-19,26-31.6,34-26.48,16.81-56.22,18.31-86.43,21.3q-54.63,5.41-108.95,13.59c-17.65,2.64-35.43,6.53-53.23,8.08a6.53,6.53,0,0,0-1.84.13c-.18.1-.49,0-.51,0s2.68,3.58,2.59,3.55a23.68,23.68,0,0,0,3-.66c5.78-1,11.67-1.48,17.5-2.06,22.41-2.21,44.87-3.92,67.32-5.61q90.67-6.86,181.44-12.21,108.78-6.52,217.72-9.26,10.08-.24,20.16-.45c1.16,0-1.25-4-2.75-4q-112.78,2.32-225.41,9-94.64,5.53-189.19,12.6c-23.91,1.79-47.83,3.58-71.7,5.93-6,.6-12.14,1.09-18.12,2.14-.68.12-2.69.19-3.18.79-1.11,1.38,1.35,3.72,2.63,4.15,3.17,1.06,8.36-.66,11.5-1.13,9.68-1.45,19.34-3,29-4.55,35.11-5.45,70.33-10.19,105.66-14,31.24-3.38,64-3.13,93.12-16.49,15.06-6.91,29.16-17.45,38.9-31,4.65-6.48,8.19-14,8.45-22.06.27-8.34-2.81-16.67-6.25-24.14A77.5,77.5,0,0,0,273,1.21c-1.85-2.28-3.33-1-1.46,1.26Z"/><path class="cls-1" d="M236.94,50.71c-8.84,7.22-19.13,12.67-28.25,19.55-5.72,4.3-17.91,11.87-12.38,20.15C200,95.85,206,94.89,211.57,94a55.45,55.45,0,0,1,10.21-.81,19.32,19.32,0,0,1,4.67.57,18,18,0,0,0,1.77.64c.22,0,.72.55.9.51.67-.13-.26-1.79-.71-1.23a15.42,15.42,0,0,0-.19,2.32,12.86,12.86,0,0,1-1.5,3.34,43.54,43.54,0,0,1-6.54,8.16A153.5,153.5,0,0,1,207,119.46c-1.17,1-2.35,1.89-3.52,2.85a35.51,35.51,0,0,0-2.9,2.43c.79,1.8,1.15,2.22,1.07,1.28a12.07,12.07,0,0,1,.77-2.54,14.48,14.48,0,0,1,4.13-4c.56-.43-2.28-4.51-2.62-4.26-3.1,2.36-6.07,5.06-4.37,9.07a11.86,11.86,0,0,0,3.36,4.67l.13,0c7.9-6.19,16-12.57,22.53-20.24,2.35-2.76,5.81-6.73,5.55-10.68-.41-6.44-6.52-8.93-12-9.1-5.21-.16-10.06,1.4-15.16,1.75-2.3.16-4.36-.78-6.52-1.26-.16,0-.71-.47-.91-.47-1.38,0,.31,1.61.67,1.3s.48-2.25.71-2.73c2.09-4.38,6.78-7.85,10.47-10.79C218.33,68.85,229.77,63,239.56,55c.58-.48-2.33-4.49-2.62-4.26Z"/><path class="cls-1" d="M262.23,82.48c2.41-.76,5.71-.19,7,2.2.74,1.35,2.47,2.49,3.87,1.34a25.54,25.54,0,0,1,2.45-1.8c.7-.47,4.16-1.69,4.43-2.21.12-.22-.57-.85-1-.56s-1,4-1.25,4.7c-2.59,6.81-6.45,13.19-10.15,19.44l2.26-.78h0l2,3.28c2.59-6.92,7.75-13.86,11.87-19.92a54.8,54.8,0,0,1,3.8-5.16c1.29-1.51,3-1.86,1.2-3.05s-.74-.35-1.1,1-.37,2.51-.64,3.72c-1,4.55-2.43,9-3.86,13.44-.53,1.67,1,3.12,2.55,3.41,2.59.48,5-5,6-6.63,2.53-4.05,4.9-8.48,8.1-12.05.23-.25,1.45-1.17,1.49-1.46.15-1-1.31-1.75-1.82-.66-.4.85-.16,3-.28,4-.27,2.11-.68,4.2-1.11,6.27a76.38,76.38,0,0,1-3.35,12.42c-.82,2.1-2,4.46,0,6.28a2.59,2.59,0,0,0,2.7.61c3.31-1.26,6-8.61,7.56-11.4,3.93-7.15,7.78-14.34,11.66-21.52,9.06-16.76,18-33.71,28.06-49.88,1.54-2.46,3.1-4.93,4.85-7.25.56-.75,1.23-1.43,1.77-2.18.93-1.29.62-.08.26-.68-2.61-4.38-2.43.58-2.9,2.71-.81,3.71-1.73,7.39-2.67,11.07-5.69,22.4-12.26,44.63-19.53,66.57-4,12-8.11,23.93-13.09,35.52-2.36,5.5-5.43,15.42-11,18.66-2.29,1.33.88,5.15,2.92,4,5.12-3,8-10.47,10.31-15.53a338.76,338.76,0,0,0,12.41-32C336.1,84.5,343.27,60.35,349.56,36c1.06-4.09,2.09-8.2,3-12.32.48-2.13,1.39-4.62,1.21-6.84-.42-5.12-4.8-4-7.19-1.11-4.45,5.37-7.87,11.78-11.37,17.78-5.22,8.93-10.22,18-15.18,27.06-5.4,9.87-10.72,19.79-16.08,29.68-1.85,3.41-3.69,6.82-5.6,10.21-.78,1.38-2.33,5.18-3.94,5.79l2.7.62-.13-.12,1,2.13c-.14-2.43,2.14-6.33,2.73-8.74a116.59,116.59,0,0,0,3-14.79c.33-3.06.1-9.9-4.92-8.19-3.56,1.22-6.27,7.09-8.12,10-1.42,2.24-2.78,4.51-4.22,6.73-.49.76-1.1,1.49-1.53,2.27-.74,1.37-1.49.74-.08,1l2.55,3.41a141.63,141.63,0,0,0,4.2-15c.41-2,1.1-4.76.2-6.78-2.13-4.72-6.17-1.33-8.26,1.2-3.84,4.65-6.94,10-10,15.16-2,3.29-4.52,6.79-5.87,10.39-.54,1.46.79,2.77,2,3.29h0a1.74,1.74,0,0,0,2.25-.78c4.16-7,9.27-14.67,11.21-22.75.68-2.85.55-6.34-2.75-7.46-3.75-1.26-8.25,2.57-10.93,4.78L273.26,84c-2.53-4.62-7.77-7.44-13-5.8-2.75.86-.27,5,2,4.28Z"/><path class="cls-1" d="M268.31,85.4a10.35,10.35,0,0,1,1,7.3,16.79,16.79,0,0,1-4.69,8.11,34.25,34.25,0,0,1-6.15,4.89c-1.8,1.16-4.7,3.39-7,3.61-6.77.67-1.49-12.83-.23-15.55.12-.26-4.26-.25-4.76.82a33.31,33.31,0,0,0-3.13,10c-.6,5.54,2.72,6.86,7.68,5.81,9.12-1.93,29.58-14.09,22.1-26.15-.6-1-5,.92-4.88,1.12Z"/><path class="cls-1" d="M385.22,48c-9.28,29.11-18.81,58.36-30.53,86.58-2.45,5.89-4.81,12.64-8.87,17.67-.92,1.13,2.61,3.61,3.64,3.3.75-.22,1.43-2.35,1.76-3l4.38-8.24q6.78-12.68,13.78-25.25c5.15-9.21,10.39-18.38,16-27.29,2.06-3.25,4.17-6.49,6.48-9.57,1.37-1.82,3.89-3.61,5-5.48.08-.15.86-.3.87-.35,0,.2-2.49-1.87-2.56-1.81s.17.23.07.37c-.34.46-.12,3.16-.21,3.8-.81,5.85-2.63,11.6-4.34,17.23-.39,1.29,2.88,3.6,4,2.91.85-.54.89-1.75,1.37-2.57,1.44-2.48,3.3-2.6,6.13-1.86,2.49.65-.65-3-1.87-3.3-2.3-.6-5.08-1.29-7.06.48-1.18,1.06-1.17,3.29-2.44,4.09l4,2.91a123.15,123.15,0,0,0,4.27-16.78c.35-2.25.75-4.75-.66-6.72-4.06-5.64-8.56,1.45-10.94,4.71-12.59,17.2-22.46,36.68-32.55,55.41q-3.21,6-6.37,11.92c-.44.83-2.41,4.88-2.48,4.91l3.64,3.3c3.47-4.29,5.57-9.92,7.72-14.94,3.6-8.43,6.84-17,10-25.63,6.35-17.33,12.28-34.81,18-52.34,1.29-3.94,2.58-7.89,3.84-11.84.4-1.26-3.59-4.12-4.06-2.66Z"/></g></g></svg>